<?xml version="1.0" encoding="utf-8" ?>
<svg xmlns="http://www.w3.org/2000/svg" xmlns:xlink="http://www.w3.org/1999/xlink" width="555" height="135">
	<path fill="#FEFEFE" d="M0 0L554.526 0C554.861 0.511741 554.948 0.959988 554.972 1.56052C555.392 11.9673 555.005 22.547 555.006 32.9684L555.007 95.3778L555.002 123.328C555.002 126.079 555.436 131.698 554.906 134.147C554.841 134.452 554.695 134.741 554.526 135L0 135L0 0Z"/>
	<path fill="#464646" d="M407.497 81.1896C412.449 81.0682 417.428 81.1894 422.382 81.2047C422.388 81.32 422.388 81.4351 422.376 81.5502C422.242 82.8166 418.754 87.7932 417.689 88.6304C417.7 88.718 417.703 88.8025 417.695 88.8907C417.608 89.9312 415.589 92.567 414.753 93.2066C414.696 91.232 408.818 83.6331 407.497 81.1896Z"/>
	<path fill="#464646" d="M361.934 44.3222C366.204 44.1106 370.535 44.2559 374.815 44.2551L398.167 44.2556Q398.335 44.518 398.448 44.8085C399.003 46.2408 398.861 52.1435 398.207 53.5814L384.628 53.6052C384.806 53.8705 384.951 54.1762 385.01 54.4923C385.435 56.7677 385.306 76.0092 385.041 78.9084C385 79.3602 384.862 79.7255 384.613 80.1054C384.783 80.3664 384.926 80.6569 384.996 80.9618C385.389 82.678 385.38 91.7782 384.611 93.055Q379.787 93.0663 374.964 93.1694C375.123 92.9282 375.252 92.6598 375.318 92.3771C375.762 90.464 375.584 58.8015 375.364 55.1762C375.329 54.5905 375.206 54.1229 374.884 53.6286L361.652 53.6075C362.598 51.8871 362.191 46.3558 361.934 44.3222Z"/>
	<path fill="#464646" d="M34.4234 44.2365L70.972 44.2561L70.9786 53.5941Q64.2245 53.56 57.4712 53.6659L57.4641 80.1054L57.4547 93.001C54.1895 93.1321 50.9085 92.9729 47.6473 93.2075L47.6611 53.5881L34.4087 53.612L34.4234 44.2365Z"/>
	<path fill="#464646" d="M410.501 44.3221C413.211 44.0322 416.202 44.2587 418.941 44.2623C419.149 44.4521 419.357 44.6717 419.509 44.91C420.793 46.9136 423.586 55.5821 424.724 58.5863C428.876 69.5456 433.345 80.4447 437.243 91.4933C437.434 92.0352 437.545 92.4133 437.422 92.9938C433.973 93.163 430.501 93.096 427.047 93.0979C427.102 92.9519 427.144 92.8024 427.147 92.6452C427.174 91.3322 417.876 66.5616 416.64 63.6884C416.487 63.3306 416.236 63.0269 415.96 62.7557C415.984 62.6607 415.993 62.644 416.002 62.5546C416.123 61.4084 415.349 59.9329 414.634 59.0778C414.668 59.3141 414.686 59.5465 414.682 59.7855C414.655 61.5134 404.333 89.1595 403.129 91.9346C402.948 92.3507 402.651 92.7054 402.325 93.0173C398.949 93.316 395.5 92.9999 392.106 93.1453C392.223 93.0188 392.33 92.8845 392.435 92.7473C393.609 91.207 396.459 82.2732 397.375 79.8537C401.685 68.4675 406.342 57.115 410.348 45.6245C410.507 45.1695 410.562 44.8067 410.501 44.3221Z"/>
	<path fill="#464646" d="M239.917 44.3221Q240.432 44.3009 240.947 44.2856C244.242 44.1849 247.556 44.2408 250.852 44.2392C257.251 44.2362 265.032 43.6945 270.034 48.4531C273.136 51.4032 274.512 55.6294 274.617 59.8279C274.721 63.9925 273.647 67.949 270.696 71.0323C266.334 75.5883 260.093 76.1412 254.141 76.256Q254.298 76.0139 254.416 75.75C254.985 74.4685 254.97 68.4232 254.435 67.0482C257.45 66.7526 260.279 66.6457 262.81 64.7943Q263.006 64.6354 263.182 64.4544C264.21 63.3909 264.66 61.3947 264.607 59.9587C264.572 59.0291 264.404 57.7284 263.691 57.0635C263.692 57.034 263.695 57.0044 263.695 56.9748C263.693 56.3914 263.202 55.7526 262.797 55.357C260.092 52.7156 252.836 53.5792 249.355 53.6469C249.529 53.9208 249.666 54.2232 249.739 54.5404C250.168 56.4036 249.994 88.153 249.793 91.5841C249.762 92.1141 249.649 92.5253 249.366 92.978C246.184 93.1804 242.976 93.1114 239.79 93.1187C240.391 91.7362 240.366 47.0044 239.917 44.3221Z"/>
	<path fill="#464646" d="M215.548 44.051C218.883 43.7889 222.152 44.0801 225.343 45.1251C227.388 45.7949 234.081 48.824 235.031 50.7026C234.753 52.1755 230.308 57.6634 229.037 58.7269C228.96 58.5055 228.857 58.2911 228.715 58.1039C226.893 55.7042 222.03 53.6163 219.077 53.3743C217.256 53.2251 215.191 53.5866 213.767 54.8089C213.082 55.397 212.344 56.3072 212.303 57.2499C212.133 61.2163 223.12 64.3891 226.234 65.8874C228.54 66.9974 230.817 68.3262 232.604 70.1866C234.914 72.5925 235.817 75.9522 235.738 79.2361C235.65 82.9166 234.184 86.2261 231.505 88.7576C227.687 92.3646 222.709 93.6063 217.588 93.4661C211.964 92.9519 207.993 91.3414 203.577 87.8222C202.268 86.7784 201.068 85.4739 199.603 84.6534L199.532 84.6138Q199.854 84.419 200.155 84.1934C201.462 83.1969 205.939 78.2264 206.132 76.7522C207.462 77.7091 208.545 79.2628 209.786 80.3772C212.421 82.7425 215.421 84.2987 219.061 84.0827C221.069 83.9636 223.235 83.5561 224.626 81.9965C224.774 81.8596 224.908 81.7151 225.017 81.5444C225.606 80.6257 225.779 79.3883 225.506 78.3407Q225.416 78.0012 225.272 77.6813Q225.127 77.3613 224.931 77.0696Q224.736 76.7779 224.495 76.5226Q224.254 76.2672 223.974 76.0552C220.811 73.6415 214.036 72.0552 210.002 69.6537C206.681 67.6773 203.716 64.9926 202.753 61.0916C201.892 57.6056 202.827 53.759 204.681 50.7378C207.159 46.7003 211.165 45.0785 215.548 44.051Z"/>
	<path fill="#464646" d="M326.884 44.3222C329.55 44.1353 332.309 44.2548 334.985 44.2439C341.055 44.2192 348.761 43.4339 354.251 46.4197Q354.862 46.7542 355.437 47.1472Q356.011 47.5402 356.545 47.9877Q357.078 48.4353 357.565 48.9331Q358.052 49.4309 358.488 49.9742Q358.924 50.5175 359.304 51.101Q359.684 51.6845 360.005 52.3025Q360.326 52.9206 360.585 53.5672Q360.844 54.2138 361.038 54.8827C362.257 59.0428 361.985 64.2832 359.882 68.1214C358.106 71.3639 355.163 73.5963 351.645 74.6088C351.838 74.7427 352.027 74.8916 352.197 75.0547C353.635 76.4408 362.724 89.5914 364.012 91.773C364.239 92.1579 364.343 92.5171 364.346 92.9673C360.497 93.2399 356.535 93.1489 352.678 93.0297C352.348 90.3801 342.693 79.3858 341.031 74.9562Q341.198 74.7148 341.309 74.4427C341.856 73.0985 341.783 68.2798 341.269 67.0201C344.117 66.8119 348.02 66.7339 350.147 64.5864C351.316 63.4058 351.781 61.6926 351.75 60.0662C351.717 58.3727 351.097 56.622 349.86 55.4344C346.956 52.6457 340.014 53.5815 336.297 53.6608Q336.505 54.026 336.608 54.4337C337.081 56.3201 336.894 87.7377 336.686 91.3418C336.651 91.9475 336.52 92.4629 336.213 92.9874Q331.458 93.1518 326.701 93.1531C327.428 90.1878 326.945 80.1199 326.947 76.4078C326.95 65.7603 327.335 54.9527 326.884 44.3222Z"/>
	<path fill="#464646" d="M479.259 44.3222C484.757 43.8607 500.9 43.7875 505.602 45.8848C509.07 47.4316 511.816 50.2046 513.171 53.7747C514.747 57.9289 514.663 63.2049 512.821 67.2661C511.11 71.0404 508.013 73.471 504.219 74.893C504.431 75.0241 504.631 75.1855 504.816 75.3527C506.319 76.7109 516.833 91.5106 516.91 92.9781C513.01 93.2404 509.011 93.1164 505.104 93.0026C505.063 91.387 495.056 78.1993 493.65 75.2263C493.774 75.0029 493.892 74.7607 493.943 74.5087C494.277 72.8531 494.477 68.3494 493.567 66.9645C495.886 66.935 498.805 66.8184 500.924 65.8257C502.173 65.2406 503.092 64.3318 503.568 63.0317C504.142 62.3998 504.205 60.8337 504.195 60.0175C504.175 58.3676 503.778 56.7905 502.554 55.6264C499.467 52.6923 492.724 53.5674 488.805 53.6441C488.956 53.8689 489.086 54.1086 489.134 54.3786C489.687 57.5245 489.229 63.3935 489.231 66.7696L489.232 82.9674C489.23 85.8307 489.369 88.781 489.173 91.6363C489.137 92.1655 489 92.5869 488.709 93.031L479.022 93.1574C479.295 92.6503 479.347 92.1977 479.37 91.6315C479.793 81.2458 479.425 70.6925 479.423 60.2913C479.423 56.4692 479.892 47.6403 479.259 44.3222Z"/>
	<path fill="#464646" d="M156.36 44.3207C159.185 44.0435 162.259 44.2436 165.109 44.235C165.148 44.265 165.186 44.2933 165.222 44.3266C166.968 45.9592 169.593 50.4439 171.143 52.6208C175.964 59.3927 181.279 66.1162 185.685 73.1509C186.133 73.8648 186.534 74.5264 186.581 75.3905C186.592 75.3709 186.604 75.3516 186.615 75.3317C186.724 75.1355 186.849 74.9553 186.946 74.7511C187.516 73.5516 187.427 45.7856 186.843 44.2617L196.386 44.2422C196.523 44.4773 196.631 44.7233 196.69 44.9902C197.052 46.6269 197.058 91.1897 196.692 92.173C196.604 92.4104 196.36 92.701 196.22 92.9224C193.804 93.574 190.245 93.1074 187.705 93.0267C187.695 92.8969 187.678 92.7643 187.642 92.6389C187.303 91.4732 169.527 66.9029 167.495 64.358C167.002 63.7403 166.468 63.2295 165.771 62.8455C165.829 62.9527 165.876 63.0579 165.929 63.1672C166.038 63.3936 166.149 63.6117 166.213 63.8568C166.709 65.7474 166.549 88.5342 166.317 91.7113C166.281 92.199 166.15 92.6002 165.897 93.0197Q160.994 93.1099 156.091 93.151C156.14 93.0903 156.149 93.0817 156.189 93.0232C156.496 92.5731 156.505 91.9131 156.525 91.3828C156.907 81.2624 156.546 70.9664 156.547 60.8336C156.548 56.7706 157.057 47.9366 156.36 44.3207Z"/>
	<path fill="#464646" d="M439.501 44.3222C443.03 44.0333 446.785 44.2329 450.338 44.2318C456.623 44.2299 464.795 43.792 469.607 48.6591C471.915 50.9938 472.774 54.0725 472.739 57.2877C472.695 61.2628 471.092 64.7127 468.27 67.4696C469.784 68.0086 470.775 68.6672 471.813 69.9115C474.281 72.8694 475.259 77.1392 474.891 80.9352C474.684 83.0627 473.897 85.7116 472.184 87.1134C472.056 87.801 471.425 88.4155 470.952 88.9261C466.478 93.7648 457.126 93.0817 451.173 93.0928C447.185 93.1002 443.191 93.0444 439.205 93.1644C439.484 92.6878 439.594 92.2544 439.622 91.7069C440.121 81.8993 439.683 71.2321 439.685 61.3416C439.686 57.2757 440.185 47.8442 439.501 44.3222Z"/>
	<path fill="#FEFEFE" d="M449.271 53.81C451.941 53.2501 455.863 53.3351 458.578 53.8858C459.958 54.1657 461.595 54.7504 462.393 55.9993C463.15 57.1839 462.957 58.6498 462.652 59.9508C462.413 60.9678 461.95 61.4094 461.086 61.94C461.034 62.0528 460.971 62.1675 460.881 62.2545C458.81 64.2475 451.743 63.518 449.011 63.4891C449.024 63.4697 449.036 63.4506 449.049 63.431C450.012 61.8821 449.724 55.6864 449.271 53.81Z"/>
	<path fill="#FEFEFE" d="M449.306 72.786C452.213 72.2434 456.267 72.3516 459.203 72.8724C461.041 73.1984 463.13 73.9035 464.233 75.5169C465.049 76.7105 465.088 78.1436 464.818 79.5223C464.575 80.7652 464.131 81.5606 463.081 82.2742Q462.975 82.4719 462.815 82.6287C461.051 84.3748 451.776 83.9532 449.125 83.937C449.933 82.408 449.7 74.7244 449.306 72.786Z"/>
	<path fill="#BC403F" d="M294.133 44.0512L298.875 44.0086C304.501 43.9714 309.635 43.6158 313.968 47.9125C319.205 53.106 321.311 61.4083 321.321 68.5834C321.332 75.7728 319.349 84.1197 314.109 89.3532C310.56 92.8971 306.887 93.4323 302.093 93.4211C295.588 93.4667 288.306 94.6081 283.169 89.7534C277.948 84.8199 275.814 76.8129 275.621 69.8468C275.418 62.5021 277.255 53.9061 282.471 48.4272C285.873 44.8543 289.382 44.1728 294.133 44.0512Z"/>
	<path fill="#FEFEFE" d="M304.425 55.7076C306.33 55.5366 307.962 56.0752 309.445 57.2891C312.143 59.4971 313.415 63.3761 313.761 66.7504C314.179 70.8327 313.307 75.7721 310.644 79.0018C309.31 80.6197 307.834 81.5395 305.747 81.74C304.661 81.7662 303.755 81.6397 302.775 81.1452C300.283 79.8878 298.815 77.5124 297.957 74.9328C296.472 70.4682 296.548 65.0041 298.703 60.7635C299.982 58.2478 301.738 56.5792 304.425 55.7076Z"/>
	<path fill="#BC403F" d="M304.019 58.9606C305.543 58.7569 306.65 58.7919 307.957 59.6846C309.896 61.0085 310.866 63.3651 311.285 65.5947C311.928 69.0166 311.575 73.3419 309.562 76.2531C308.604 77.6382 307.627 78.3771 305.971 78.6814C305.361 78.7736 304.833 78.7594 304.237 78.6054C302.78 78.2294 301.608 77.1693 300.857 75.8946C299.028 72.7918 298.744 68.208 299.659 64.7606C300.367 62.0888 301.645 60.3469 304.019 58.9606Z"/>
	<path fill="#FEFEFE" d="M304.346 62.2133C304.821 62.0761 305.296 61.946 305.776 62.1314C306.603 62.4507 307.225 63.3152 307.586 64.0884C308.753 66.5846 308.703 70.2328 307.752 72.7686C307.308 73.9552 306.754 74.952 305.571 75.4977C305.055 75.6135 304.889 75.5263 304.453 75.2517C303.455 74.6241 302.947 72.9698 302.71 71.8912C301.877 68.113 302.243 65.4956 304.346 62.2133Z"/>
	<path fill="#464646" d="M127.749 44.2387L135.956 44.271C136.055 44.3699 136.151 44.4743 136.233 44.5879C137.269 46.0232 140.945 56.7314 141.882 59.1879L150.301 81.2932C151.665 84.8826 153.271 88.5294 154.42 92.1843C154.499 92.4346 154.468 92.7308 154.432 92.9867C150.947 93.1472 147.451 93.0997 143.963 93.1013C144.388 91.8382 133.4 63.0097 132.269 60.327L131.872 60.2234C130.876 61.1217 124.957 78.5274 123.996 81.1709C129.116 81.1003 134.234 81.3073 139.353 81.1167C139.431 82.5072 133.059 91.598 132.015 93.231C129.588 89.0953 126.84 85.1139 124.207 81.1061C122.322 84.8569 121.109 89.0947 119.767 93.0632Q109.854 93.2806 99.9428 93.024C96.2969 87.3756 92.2897 81.9773 88.5328 76.4051L88.516 67.0409C91.2403 66.7941 95.0459 66.6716 97.1125 64.6494C98.2912 63.496 98.7646 61.8103 98.7603 60.1993C98.7555 58.4318 98.1213 56.6279 96.8354 55.3857C94.0728 52.7171 87.2765 53.583 83.7333 53.6653C83.5816 66.7686 83.7777 79.8795 83.6785 92.9847C80.438 93.1529 77.1811 92.9851 73.9412 93.1968C73.9529 76.9091 73.5653 60.5364 73.9957 44.2589C80.9944 44.2608 93.5666 43.269 99.7784 45.739Q100.42 45.9896 101.034 46.3032Q101.648 46.6168 102.227 46.9902Q102.806 47.3636 103.345 47.7931Q103.884 48.2225 104.378 48.7038Q104.871 49.185 105.314 49.7131Q105.757 50.2413 106.145 50.8111Q106.532 51.3809 106.861 51.9866Q107.19 52.5924 107.457 53.228C109.17 57.2125 109.268 62.5147 107.647 66.542C105.983 70.6749 102.954 72.9322 99.0059 74.6222C102.651 80.0449 106.878 85.1924 110.235 90.7876C111.532 86.7 113.208 82.6812 114.729 78.6699C119.063 67.2367 123.836 55.8182 127.749 44.2387Z"/>
</svg>
